# xmcd
#
# Track frame offsets:
#	150
#	12557
#	27375
#	42407
#	55120
#	67765
#	81382
#	99400
#	109067
#	119172
#
# Disc length: 1789 seconds
#
# Revision: 0
# Processed by: cddbd v1.5.1PL0 Copyright (c) Steve Scherf et al.
# Submitted via: dBpowerAMP V4.0
#
DISCID=8506fb0a
DTITLE=Homeland Quartet - Come Morning
DYEAR=1900
DGENRE=
TTITLE0=Sing Camp Meeting Style
TTITLE1=Family Bible
TTITLE2=Sheltered In The Arms Of God
TTITLE3=Listen To The Radio
TTITLE4=You'll Never Walk Alone
TTITLE5=I Won't Have To Worry Anymore
TTITLE6=Sustaining Grace
TTITLE7=Wait For The Light To Shine
TTITLE8=Where The Soul Of Man Never Dies
TTITLE9=Come Morning
EXTD=Southern Gospel Quartet
EXTT0=
EXTT1=
EXTT2=
EXTT3=
EXTT4=
EXTT5=
EXTT6=
EXTT7=
EXTT8=
EXTT9=
PLAYORDER=
